inDegrees=no
num_controls=7
num_derivatives=13
num_iterations=202
num_multipliers=7
num_parameters=0
num_slacks=7
num_states=26
objective=6.196973
objective_accelerations=0.521751
objective_balance=0.066216
objective_effort=0.478925
objective_height=5.060967
objective_ligament=0.069114
solver_duration=1728.340030
status=Solve_Succeeded
success=true
DataType=double
version=3
OpenSimVersion=4.4-2022-07-23-0e9fedc
endheader
time	/jointset/ground_pelvis/pelvis_tilt/value	/jointset/ground_pelvis/pelvis_tx/value	/jointset/ground_pelvis/pelvis_ty/value	/jointset/hip_r/hip_flexion_r/value	/jointset/hip_r/hip_adduction_r/value	/jointset/hip_r/hip_rotation_r/value	/jointset/back/lumbar_extension/value	/jointset/patellofemoral_r/patellar_flexion_r/value	/jointset/knee_r/knee_flexion_r/value	/jointset/knee_r/knee_adduction_r/value	/jointset/knee_r/knee_rotation_r/value	/jointset/ankle_r/ankle_angle_r/value	/jointset/subtalar_r/subtalar_angle_r/value	/jointset/ground_pelvis/pelvis_tilt/speed	/jointset/ground_pelvis/pelvis_tx/speed	/jointset/ground_pelvis/pelvis_ty/speed	/jointset/hip_r/hip_flexion_r/speed	/jointset/hip_r/hip_adduction_r/speed	/jointset/hip_r/hip_rotation_r/speed	/jointset/back/lumbar_extension/speed	/jointset/patellofemoral_r/patellar_flexion_r/speed	/jointset/knee_r/knee_flexion_r/speed	/jointset/knee_r/knee_adduction_r/speed	/jointset/knee_r/knee_rotation_r/speed	/jointset/ankle_r/ankle_angle_r/speed	/jointset/subtalar_r/subtalar_angle_r/speed	/forceset/tau_hip_flexion_r	/forceset/tau_hip_adduction_r	/forceset/tau_hip_rotation_r	/forceset/tau_knee_flexion_r	/forceset/tau_ankle_angle_r	/forceset/tau_subtalar_angle_r	/forceset/tau_lumbar_extension	lambda_cid13_p0	lambda_cid14_p0	lambda_cid14_p1	lambda_cid14_p2	lambda_cid14_p3	lambda_cid14_p4	lambda_cid14_p5	/jointset/ground_pelvis/pelvis_tilt/accel	/jointset/ground_pelvis/pelvis_tx/accel	/jointset/ground_pelvis/pelvis_ty/accel	/jointset/hip_r/hip_flexion_r/accel	/jointset/hip_r/hip_adduction_r/accel	/jointset/hip_r/hip_rotation_r/accel	/jointset/back/lumbar_extension/accel	/jointset/patellofemoral_r/patellar_flexion_r/accel	/jointset/knee_r/knee_flexion_r/accel	/jointset/knee_r/knee_adduction_r/accel	/jointset/knee_r/knee_rotation_r/accel	/jointset/ankle_r/ankle_angle_r/accel	/jointset/subtalar_r/subtalar_angle_r/accel	gamma_cid13_p0	gamma_cid14_p0	gamma_cid14_p1	gamma_cid14_p2	gamma_cid14_p3	gamma_cid14_p4	gamma_cid14_p5
1	-0.2676154015574395	0.0136301017722765	0.7010257520247454	1.315069297922084	-0.2300872647520819	-0.09011377747908922	-0.4362951602364807	1.281936651840885	1.281936651840835	-0.09098633774612076	0.1744387369274771	0.4363321728251204	0.1149172443561335	-0.001394434495907134	0.004904962480400939	0.01417961475758185	-0.03865916764095918	0.002452085625122498	-0.0109365572942969	0.004075334392107604	-0.04609871273840004	-0.04609871273840014	-0.001530053655580594	-0.0002609587134438378	-0.00669320023127918	0.001721150554729305	-0.2602194609686961	0.01425017023842542	0.01245186761595894	-0.4684415247669909	-0.02269173686280402	0.01337312127642647	0.2862121295721436	-0.1124185160294096	-55.26757366498155	-3.752310755984686	0.9248961057881193	15.81552213894805	-792.9462660253911	67.00546775820614	1.260905164266457	0.14235821996828	1.591190475243999	-5.05324599095099	0.1266925134510951	-0.2510659157949919	0.2826687459244469	-4.921670447751555	-4.921670447751555	0.9611265211701244	0.001232409426484902	-1.331882857258293	-0.3204650718475506	2.132276821438171e-09	-5.907325125677447e-11	1.465175768036764e-08	1.565870352004997e-08	5.637544943792303e-09	-5.974043785097372e-09	1.892044354593681e-08
1.01	-0.2675674696928637	0.01368627062912703	0.7012469243634394	1.314431425989882	-0.2300564483496523	-0.09023452301005273	-0.4362381876249323	1.281229763323463	1.281229763323432	-0.09095244502182291	0.1744358406035503	0.4361985322775417	0.1149182906160633	0.01093316854111207	0.006332147018543258	0.03005044729935619	-0.08887272209303015	0.003708888841908671	-0.01321532148419277	0.007450305922718318	-0.09529437935629249	-0.09529437935629252	0.00831469108715136	-0.0003125985183501398	-0.0200470992883184	-0.001520497443683267	-0.2611025299786853	0.01456325427157865	0.01242586826797195	-0.4674151794251036	-0.02405615125810423	0.01344792697122038	0.2870109769157412	-0.1169450228299351	-55.71987048481193	-3.793479667421814	0.9251352702192476	16.09123781570376	-793.2344952116244	66.8567942110941	1.211543424168262	0.1433991835809809	1.584367039728774	-4.999034452629769	0.1248335107692742	-0.2166960116037676	0.3845790562688277	-4.920823750199511	-4.920823750199527	0.9970644745056287	-0.007497666408305651	-1.338972645042225	-0.3272955225432895	3.436535290184918e-09	4.183739409486178e-09	3.364755076205018e-08	3.08287449631992e-08	-4.70858894187077e-10	-8.730289258068743e-09	4.444508953929944e-08
1.02	-0.2673976906877659	0.01375681145392767	0.7016266725067685	1.313292693657101	-0.2300131320580603	-0.09037813905110034	-0.4361435317581093	1.280030456343582	1.28003045634357	-0.09081992164536998	0.1744326007834025	0.4359309868963399	0.1148866642242685	0.02297499360807172	0.007779356070422029	0.04589477568459777	-0.1388312477568855	0.004952063457750791	-0.01551065931475345	0.0116119854389095	-0.1445824052298404	-0.1445824052298403	0.01819607677711524	-0.0003296579616292562	-0.03347416694997553	-0.004813379790296127	-0.2619855989886742	0.01487633830479634	0.01239986891999695	-0.4663888340832132	-0.0254205656533835	0.01352273266613204	0.287809824259334	-0.1249627753675387	-56.1824753615334	-3.83289298648	0.9210273402359234	16.37996425382138	-793.6916005814977	66.73088337953412	1.203749570254561	0.1463631227155809	1.585889643937443	-5.002240233307887	0.1239667932622767	-0.2543806439279616	0.4400103430403548	-4.940142298882613	-4.94014229888261	0.9684547106165112	0.008148481751941286	-1.346516578181848	-0.3307119414876146	4.681692616089944e-09	6.304404799452914e-09	4.776985418244132e-08	4.697704485910778e-08	-2.010185282565281e-09	-1.13545805413026e-08	6.276128723096725e-08
1.03	-0.2671088662591617	0.01384199201090723	0.702164677418421	1.3116556252902	-0.2299574721413279	-0.09054483659988743	-0.4360033525341236	1.27833791576811	1.278337915768117	-0.090588451433063	0.1744293598327216	0.4355288863969156	0.1148218616081008	0.0347447208615996	0.009266835910487841	0.06169601187412253	-0.1885390702463797	0.006175929156603039	-0.01783218375420549	0.01655625894181019	-0.1939299995274625	-0.1939299995274618	0.02810228078412171	-0.0003152610941801722	-0.04695017469840131	-0.008154462030739173	-0.2624553148751811	0.01506214517818728	0.01241003862334268	-0.4653511879497368	-0.02614173241409933	0.01354272938053616	0.2883193691615937	-0.1369932787854279	-56.41254859493138	-3.856291851069113	0.9153907103145908	16.44019701404339	-793.7501863281645	66.61140362636273	1.156810928299249	0.1514517927302986	1.575708579274844	-4.948547880219325	0.1210085202938254	-0.2215348277229896	0.5414957911403924	-4.932712637356603	-4.932712637356558	1.002354331448255	-0.001407342542970833	-1.348780480948758	-0.3368868595169362	5.92624686910883e-09	8.403415625432127e-09	6.184242811649272e-08	6.313532698412616e-08	-3.502888431661813e-09	-1.397752535321259e-08	8.100392932771976e-08
